<mxfile host="app.diagrams.net" agent="Mozilla/5.0 (Windows NT 10.0; Win64; x64) AppleWebKit/537.36 (KHTML, like Gecko) Chrome/131.0.0.0 Safari/537.36 Edg/131.0.0.0" version="24.9.1">
  <diagram name="1 oldal" id="8qRBQV87GWGWTZp9xRCq">
    <mxGraphModel dx="2047" dy="666" grid="1" gridSize="10" guides="1" tooltips="1" connect="1" arrows="1" fold="1" page="1" pageScale="1" pageWidth="827" pageHeight="1169" math="0" shadow="0">
      <root>
        <mxCell id="0" />
        <mxCell id="1" parent="0" />
        <mxCell id="yNoArYyabMt8Pd0Z0W2D-1" value="" style="shape=table;startSize=0;container=1;collapsible=0;childLayout=tableLayout;" parent="1" vertex="1">
          <mxGeometry x="340" y="220" width="260" height="50" as="geometry" />
        </mxCell>
        <mxCell id="yNoArYyabMt8Pd0Z0W2D-2" value="" style="shape=tableRow;horizontal=0;startSize=0;swimlaneHead=0;swimlaneBody=0;strokeColor=inherit;top=0;left=0;bottom=0;right=0;collapsible=0;dropTarget=0;fillColor=none;points=[[0,0.5],[1,0.5]];portConstraint=eastwest;" parent="yNoArYyabMt8Pd0Z0W2D-1" vertex="1">
          <mxGeometry width="260" height="50" as="geometry" />
        </mxCell>
        <mxCell id="yNoArYyabMt8Pd0Z0W2D-3" value="&lt;b&gt;Márkanév&lt;/b&gt; PK, NN, VC(30)" style="shape=partialRectangle;html=1;whiteSpace=wrap;connectable=0;strokeColor=inherit;overflow=hidden;fillColor=none;top=0;left=0;bottom=0;right=0;pointerEvents=1;" parent="yNoArYyabMt8Pd0Z0W2D-2" vertex="1">
          <mxGeometry width="65" height="50" as="geometry">
            <mxRectangle width="65" height="50" as="alternateBounds" />
          </mxGeometry>
        </mxCell>
        <mxCell id="yNoArYyabMt8Pd0Z0W2D-4" value="&lt;b&gt;Email_cím&lt;/b&gt; VC(45)" style="shape=partialRectangle;html=1;whiteSpace=wrap;connectable=0;strokeColor=inherit;overflow=hidden;fillColor=none;top=0;left=0;bottom=0;right=0;pointerEvents=1;" parent="yNoArYyabMt8Pd0Z0W2D-2" vertex="1">
          <mxGeometry x="65" width="65" height="50" as="geometry">
            <mxRectangle width="65" height="50" as="alternateBounds" />
          </mxGeometry>
        </mxCell>
        <mxCell id="yNoArYyabMt8Pd0Z0W2D-5" value="&lt;b&gt;Telefon-&lt;/b&gt;&lt;div&gt;&lt;b&gt;szám&lt;/b&gt;&lt;/div&gt;&lt;div&gt;INT(10) FK&lt;/div&gt;" style="shape=partialRectangle;html=1;whiteSpace=wrap;connectable=0;strokeColor=inherit;overflow=hidden;fillColor=none;top=0;left=0;bottom=0;right=0;pointerEvents=1;" parent="yNoArYyabMt8Pd0Z0W2D-2" vertex="1">
          <mxGeometry x="130" width="65" height="50" as="geometry">
            <mxRectangle width="65" height="50" as="alternateBounds" />
          </mxGeometry>
        </mxCell>
        <mxCell id="yNoArYyabMt8Pd0Z0W2D-6" value="&lt;div style=&quot;&quot;&gt;&lt;b style=&quot;text-align: center;&quot;&gt;CímID&lt;/b&gt;&lt;/div&gt;&lt;div style=&quot;&quot;&gt;&lt;b style=&quot;text-align: center;&quot;&gt;&amp;nbsp;&lt;/b&gt;&lt;span style=&quot;text-align: center;&quot;&gt;INT(3), FK&lt;/span&gt;&lt;/div&gt;" style="shape=partialRectangle;html=1;whiteSpace=wrap;connectable=0;strokeColor=inherit;overflow=hidden;fillColor=none;top=0;left=0;bottom=0;right=0;pointerEvents=1;align=left;" parent="yNoArYyabMt8Pd0Z0W2D-2" vertex="1">
          <mxGeometry x="195" width="65" height="50" as="geometry">
            <mxRectangle width="65" height="50" as="alternateBounds" />
          </mxGeometry>
        </mxCell>
        <mxCell id="yNoArYyabMt8Pd0Z0W2D-8" value="Gyártó" style="rounded=0;whiteSpace=wrap;html=1;fillColor=#d0cee2;strokeColor=#56517e;" parent="1" vertex="1">
          <mxGeometry x="340" y="190" width="260" height="30" as="geometry" />
        </mxCell>
        <mxCell id="yNoArYyabMt8Pd0Z0W2D-9" value="" style="shape=table;startSize=0;container=1;collapsible=0;childLayout=tableLayout;" parent="1" vertex="1">
          <mxGeometry x="30" y="220" width="260" height="50" as="geometry" />
        </mxCell>
        <mxCell id="yNoArYyabMt8Pd0Z0W2D-10" value="" style="shape=tableRow;horizontal=0;startSize=0;swimlaneHead=0;swimlaneBody=0;strokeColor=inherit;top=0;left=0;bottom=0;right=0;collapsible=0;dropTarget=0;fillColor=none;points=[[0,0.5],[1,0.5]];portConstraint=eastwest;" parent="yNoArYyabMt8Pd0Z0W2D-9" vertex="1">
          <mxGeometry width="260" height="50" as="geometry" />
        </mxCell>
        <mxCell id="yNoArYyabMt8Pd0Z0W2D-11" value="&lt;b&gt;Pkód&lt;/b&gt; PK,NN, INT(7)" style="shape=partialRectangle;html=1;whiteSpace=wrap;connectable=0;strokeColor=inherit;overflow=hidden;fillColor=none;top=0;left=0;bottom=0;right=0;pointerEvents=1;" parent="yNoArYyabMt8Pd0Z0W2D-10" vertex="1">
          <mxGeometry width="65" height="50" as="geometry">
            <mxRectangle width="65" height="50" as="alternateBounds" />
          </mxGeometry>
        </mxCell>
        <mxCell id="yNoArYyabMt8Pd0Z0W2D-12" value="&lt;b&gt;név &lt;/b&gt;NN, VC(30)" style="shape=partialRectangle;html=1;whiteSpace=wrap;connectable=0;strokeColor=inherit;overflow=hidden;fillColor=none;top=0;left=0;bottom=0;right=0;pointerEvents=1;" parent="yNoArYyabMt8Pd0Z0W2D-10" vertex="1">
          <mxGeometry x="65" width="65" height="50" as="geometry">
            <mxRectangle width="65" height="50" as="alternateBounds" />
          </mxGeometry>
        </mxCell>
        <mxCell id="yNoArYyabMt8Pd0Z0W2D-13" value="&lt;b&gt;Márka&lt;/b&gt; VC(30) FK, NN" style="shape=partialRectangle;html=1;whiteSpace=wrap;connectable=0;strokeColor=inherit;overflow=hidden;fillColor=none;top=0;left=0;bottom=0;right=0;pointerEvents=1;" parent="yNoArYyabMt8Pd0Z0W2D-10" vertex="1">
          <mxGeometry x="130" width="65" height="50" as="geometry">
            <mxRectangle width="65" height="50" as="alternateBounds" />
          </mxGeometry>
        </mxCell>
        <mxCell id="yNoArYyabMt8Pd0Z0W2D-14" value="&lt;div style=&quot;&quot;&gt;&lt;span style=&quot;background-color: initial;&quot;&gt;&lt;font&gt;&lt;b style=&quot;&quot;&gt;ear &lt;/b&gt;INT(5)&lt;/font&gt;&lt;/span&gt;&lt;/div&gt;" style="shape=partialRectangle;html=1;whiteSpace=wrap;connectable=0;strokeColor=inherit;overflow=hidden;fillColor=none;top=0;left=0;bottom=0;right=0;pointerEvents=1;align=left;" parent="yNoArYyabMt8Pd0Z0W2D-10" vertex="1">
          <mxGeometry x="195" width="65" height="50" as="geometry">
            <mxRectangle width="65" height="50" as="alternateBounds" />
          </mxGeometry>
        </mxCell>
        <mxCell id="yNoArYyabMt8Pd0Z0W2D-15" value="Parfüm" style="rounded=0;whiteSpace=wrap;html=1;fillColor=#d0cee2;strokeColor=#56517e;" parent="1" vertex="1">
          <mxGeometry x="30" y="190" width="260" height="30" as="geometry" />
        </mxCell>
        <mxCell id="yNoArYyabMt8Pd0Z0W2D-16" value="" style="shape=table;startSize=0;container=1;collapsible=0;childLayout=tableLayout;" parent="1" vertex="1">
          <mxGeometry x="-280" y="220" width="260" height="50" as="geometry" />
        </mxCell>
        <mxCell id="yNoArYyabMt8Pd0Z0W2D-17" value="" style="shape=tableRow;horizontal=0;startSize=0;swimlaneHead=0;swimlaneBody=0;strokeColor=inherit;top=0;left=0;bottom=0;right=0;collapsible=0;dropTarget=0;fillColor=none;points=[[0,0.5],[1,0.5]];portConstraint=eastwest;" parent="yNoArYyabMt8Pd0Z0W2D-16" vertex="1">
          <mxGeometry width="260" height="50" as="geometry" />
        </mxCell>
        <mxCell id="yNoArYyabMt8Pd0Z0W2D-18" value="&lt;b&gt;Számlakód &lt;/b&gt;NN,PK, INT(9)" style="shape=partialRectangle;html=1;whiteSpace=wrap;connectable=0;strokeColor=inherit;overflow=hidden;fillColor=none;top=0;left=0;bottom=0;right=0;pointerEvents=1;" parent="yNoArYyabMt8Pd0Z0W2D-17" vertex="1">
          <mxGeometry width="65" height="50" as="geometry">
            <mxRectangle width="65" height="50" as="alternateBounds" />
          </mxGeometry>
        </mxCell>
        <mxCell id="yNoArYyabMt8Pd0Z0W2D-19" value="&lt;b&gt;név &lt;/b&gt;NN, VC(20)" style="shape=partialRectangle;html=1;whiteSpace=wrap;connectable=0;strokeColor=inherit;overflow=hidden;fillColor=none;top=0;left=0;bottom=0;right=0;pointerEvents=1;" parent="yNoArYyabMt8Pd0Z0W2D-17" vertex="1">
          <mxGeometry x="65" width="65" height="50" as="geometry">
            <mxRectangle width="65" height="50" as="alternateBounds" />
          </mxGeometry>
        </mxCell>
        <mxCell id="yNoArYyabMt8Pd0Z0W2D-20" value="&lt;b&gt;Város&lt;/b&gt; VC(18)&amp;nbsp;" style="shape=partialRectangle;html=1;whiteSpace=wrap;connectable=0;strokeColor=inherit;overflow=hidden;fillColor=none;top=0;left=0;bottom=0;right=0;pointerEvents=1;" parent="yNoArYyabMt8Pd0Z0W2D-17" vertex="1">
          <mxGeometry x="130" width="65" height="50" as="geometry">
            <mxRectangle width="65" height="50" as="alternateBounds" />
          </mxGeometry>
        </mxCell>
        <mxCell id="yNoArYyabMt8Pd0Z0W2D-21" value="&lt;div style=&quot;&quot;&gt;&lt;span style=&quot;background-color: initial;&quot;&gt;&lt;font&gt;&lt;b style=&quot;&quot;&gt;pkód&amp;nbsp;&lt;/b&gt;INT(7)&lt;/font&gt;&lt;/span&gt;&lt;/div&gt;&lt;div style=&quot;&quot;&gt;&lt;span style=&quot;background-color: initial;&quot;&gt;&lt;font&gt;FK, NN&lt;/font&gt;&lt;/span&gt;&lt;/div&gt;" style="shape=partialRectangle;html=1;whiteSpace=wrap;connectable=0;strokeColor=inherit;overflow=hidden;fillColor=none;top=0;left=0;bottom=0;right=0;pointerEvents=1;align=left;" parent="yNoArYyabMt8Pd0Z0W2D-17" vertex="1">
          <mxGeometry x="195" width="65" height="50" as="geometry">
            <mxRectangle width="65" height="50" as="alternateBounds" />
          </mxGeometry>
        </mxCell>
        <mxCell id="yNoArYyabMt8Pd0Z0W2D-22" value="Üzlet" style="rounded=0;whiteSpace=wrap;html=1;fillColor=#d0cee2;strokeColor=#56517e;" parent="1" vertex="1">
          <mxGeometry x="-280" y="190" width="260" height="30" as="geometry" />
        </mxCell>
        <mxCell id="yNoArYyabMt8Pd0Z0W2D-23" value="" style="endArrow=classic;html=1;rounded=0;exitX=1;exitY=0.5;exitDx=0;exitDy=0;entryX=0;entryY=0.5;entryDx=0;entryDy=0;" parent="1" source="yNoArYyabMt8Pd0Z0W2D-17" target="yNoArYyabMt8Pd0Z0W2D-10" edge="1">
          <mxGeometry width="50" height="50" relative="1" as="geometry">
            <mxPoint x="120" y="260" as="sourcePoint" />
            <mxPoint x="170" y="210" as="targetPoint" />
          </mxGeometry>
        </mxCell>
        <mxCell id="yNoArYyabMt8Pd0Z0W2D-24" value="" style="endArrow=classic;html=1;rounded=0;exitX=0.618;exitY=1.014;exitDx=0;exitDy=0;exitPerimeter=0;entryX=0;entryY=0.5;entryDx=0;entryDy=0;" parent="1" source="yNoArYyabMt8Pd0Z0W2D-10" target="yNoArYyabMt8Pd0Z0W2D-2" edge="1">
          <mxGeometry width="50" height="50" relative="1" as="geometry">
            <mxPoint x="140" y="290" as="sourcePoint" />
            <mxPoint x="310" y="150" as="targetPoint" />
            <Array as="points">
              <mxPoint x="190" y="290" />
              <mxPoint x="300" y="290" />
              <mxPoint x="300" y="245" />
            </Array>
          </mxGeometry>
        </mxCell>
        <mxCell id="yNoArYyabMt8Pd0Z0W2D-25" value="" style="shape=table;startSize=0;container=1;collapsible=0;childLayout=tableLayout;" parent="1" vertex="1">
          <mxGeometry x="-280" y="370" width="260" height="50" as="geometry" />
        </mxCell>
        <mxCell id="yNoArYyabMt8Pd0Z0W2D-26" value="" style="shape=tableRow;horizontal=0;startSize=0;swimlaneHead=0;swimlaneBody=0;strokeColor=inherit;top=0;left=0;bottom=0;right=0;collapsible=0;dropTarget=0;fillColor=none;points=[[0,0.5],[1,0.5]];portConstraint=eastwest;" parent="yNoArYyabMt8Pd0Z0W2D-25" vertex="1">
          <mxGeometry width="260" height="50" as="geometry" />
        </mxCell>
        <mxCell id="yNoArYyabMt8Pd0Z0W2D-27" value="&lt;b&gt;Vkód &lt;/b&gt;NN,PK, INT(7)" style="shape=partialRectangle;html=1;whiteSpace=wrap;connectable=0;strokeColor=inherit;overflow=hidden;fillColor=none;top=0;left=0;bottom=0;right=0;pointerEvents=1;" parent="yNoArYyabMt8Pd0Z0W2D-26" vertex="1">
          <mxGeometry width="65" height="50" as="geometry">
            <mxRectangle width="65" height="50" as="alternateBounds" />
          </mxGeometry>
        </mxCell>
        <mxCell id="yNoArYyabMt8Pd0Z0W2D-28" value="&lt;b&gt;Születési&lt;/b&gt;&lt;div&gt;&lt;b&gt;_év&lt;/b&gt;&lt;/div&gt;&lt;div&gt;INT(4)&lt;/div&gt;" style="shape=partialRectangle;html=1;whiteSpace=wrap;connectable=0;strokeColor=inherit;overflow=hidden;fillColor=none;top=0;left=0;bottom=0;right=0;pointerEvents=1;" parent="yNoArYyabMt8Pd0Z0W2D-26" vertex="1">
          <mxGeometry x="65" width="65" height="50" as="geometry">
            <mxRectangle width="65" height="50" as="alternateBounds" />
          </mxGeometry>
        </mxCell>
        <mxCell id="yNoArYyabMt8Pd0Z0W2D-29" value="&lt;b&gt;Név&lt;/b&gt; VC(35)" style="shape=partialRectangle;html=1;whiteSpace=wrap;connectable=0;strokeColor=inherit;overflow=hidden;fillColor=none;top=0;left=0;bottom=0;right=0;pointerEvents=1;" parent="yNoArYyabMt8Pd0Z0W2D-26" vertex="1">
          <mxGeometry x="130" width="65" height="50" as="geometry">
            <mxRectangle width="65" height="50" as="alternateBounds" />
          </mxGeometry>
        </mxCell>
        <mxCell id="yNoArYyabMt8Pd0Z0W2D-30" value="&lt;div style=&quot;&quot;&gt;&lt;span style=&quot;background-color: initial;&quot;&gt;&lt;font&gt;&lt;b style=&quot;&quot;&gt;számlakód&lt;/b&gt;&lt;/font&gt;&lt;/span&gt;&lt;/div&gt;&lt;div style=&quot;&quot;&gt;&lt;span style=&quot;background-color: initial;&quot;&gt;&lt;font&gt;&lt;b style=&quot;&quot;&gt;&amp;nbsp;&lt;/b&gt;INT(9), FK, NN&lt;/font&gt;&lt;/span&gt;&lt;/div&gt;" style="shape=partialRectangle;html=1;whiteSpace=wrap;connectable=0;strokeColor=inherit;overflow=hidden;fillColor=none;top=0;left=0;bottom=0;right=0;pointerEvents=1;align=left;" parent="yNoArYyabMt8Pd0Z0W2D-26" vertex="1">
          <mxGeometry x="195" width="65" height="50" as="geometry">
            <mxRectangle width="65" height="50" as="alternateBounds" />
          </mxGeometry>
        </mxCell>
        <mxCell id="yNoArYyabMt8Pd0Z0W2D-31" value="Vásárló" style="rounded=0;whiteSpace=wrap;html=1;fillColor=#d0cee2;strokeColor=#56517e;" parent="1" vertex="1">
          <mxGeometry x="-280" y="340" width="260" height="30" as="geometry" />
        </mxCell>
        <mxCell id="yNoArYyabMt8Pd0Z0W2D-33" value="" style="shape=table;startSize=0;container=1;collapsible=0;childLayout=tableLayout;" parent="1" vertex="1">
          <mxGeometry x="30" y="370" width="260" height="50" as="geometry" />
        </mxCell>
        <mxCell id="yNoArYyabMt8Pd0Z0W2D-34" value="" style="shape=tableRow;horizontal=0;startSize=0;swimlaneHead=0;swimlaneBody=0;strokeColor=inherit;top=0;left=0;bottom=0;right=0;collapsible=0;dropTarget=0;fillColor=none;points=[[0,0.5],[1,0.5]];portConstraint=eastwest;" parent="yNoArYyabMt8Pd0Z0W2D-33" vertex="1">
          <mxGeometry width="260" height="50" as="geometry" />
        </mxCell>
        <mxCell id="yNoArYyabMt8Pd0Z0W2D-35" value="&lt;b&gt;Kszám&lt;/b&gt;&lt;div&gt;PK,NN INT(10)&lt;/div&gt;" style="shape=partialRectangle;html=1;whiteSpace=wrap;connectable=0;strokeColor=inherit;overflow=hidden;fillColor=none;top=0;left=0;bottom=0;right=0;pointerEvents=1;" parent="yNoArYyabMt8Pd0Z0W2D-34" vertex="1">
          <mxGeometry width="65" height="50" as="geometry">
            <mxRectangle width="65" height="50" as="alternateBounds" />
          </mxGeometry>
        </mxCell>
        <mxCell id="yNoArYyabMt8Pd0Z0W2D-36" value="&lt;b&gt;Vásárló neve &lt;/b&gt;VC(40)" style="shape=partialRectangle;html=1;whiteSpace=wrap;connectable=0;strokeColor=inherit;overflow=hidden;fillColor=none;top=0;left=0;bottom=0;right=0;pointerEvents=1;" parent="yNoArYyabMt8Pd0Z0W2D-34" vertex="1">
          <mxGeometry x="65" width="65" height="50" as="geometry">
            <mxRectangle width="65" height="50" as="alternateBounds" />
          </mxGeometry>
        </mxCell>
        <mxCell id="yNoArYyabMt8Pd0Z0W2D-37" value="&lt;b&gt;Regisztrá-&lt;/b&gt;&lt;div&gt;&lt;b&gt;ció éve &lt;/b&gt;INT(4)&lt;/div&gt;" style="shape=partialRectangle;html=1;whiteSpace=wrap;connectable=0;strokeColor=inherit;overflow=hidden;fillColor=none;top=0;left=0;bottom=0;right=0;pointerEvents=1;" parent="yNoArYyabMt8Pd0Z0W2D-34" vertex="1">
          <mxGeometry x="130" width="65" height="50" as="geometry">
            <mxRectangle width="65" height="50" as="alternateBounds" />
          </mxGeometry>
        </mxCell>
        <mxCell id="yNoArYyabMt8Pd0Z0W2D-38" value="&lt;div style=&quot;&quot;&gt;&lt;span style=&quot;background-color: initial;&quot;&gt;&lt;font&gt;&lt;b style=&quot;&quot;&gt;vkód&lt;/b&gt;&lt;/font&gt;&lt;/span&gt;&lt;/div&gt;&lt;div style=&quot;&quot;&gt;&lt;span style=&quot;background-color: initial;&quot;&gt;&lt;font&gt;&lt;b style=&quot;&quot;&gt;&amp;nbsp;&lt;/b&gt;INT(4)&lt;/font&gt;&lt;/span&gt;&lt;/div&gt;" style="shape=partialRectangle;html=1;whiteSpace=wrap;connectable=0;strokeColor=inherit;overflow=hidden;fillColor=none;top=0;left=0;bottom=0;right=0;pointerEvents=1;align=center;" parent="yNoArYyabMt8Pd0Z0W2D-34" vertex="1">
          <mxGeometry x="195" width="65" height="50" as="geometry">
            <mxRectangle width="65" height="50" as="alternateBounds" />
          </mxGeometry>
        </mxCell>
        <mxCell id="yNoArYyabMt8Pd0Z0W2D-39" value="Vásárlói kártya" style="rounded=0;whiteSpace=wrap;html=1;fillColor=#d0cee2;strokeColor=#56517e;" parent="1" vertex="1">
          <mxGeometry x="30" y="340" width="260" height="30" as="geometry" />
        </mxCell>
        <mxCell id="yNoArYyabMt8Pd0Z0W2D-48" value="" style="shape=partialRectangle;html=1;whiteSpace=wrap;connectable=0;strokeColor=inherit;overflow=hidden;fillColor=none;top=0;left=0;bottom=0;right=0;pointerEvents=1;align=left;" parent="1" vertex="1">
          <mxGeometry x="535" y="380" width="65" height="50" as="geometry">
            <mxRectangle width="65" height="50" as="alternateBounds" />
          </mxGeometry>
        </mxCell>
        <mxCell id="yNoArYyabMt8Pd0Z0W2D-49" value="" style="shape=table;startSize=0;container=1;collapsible=0;childLayout=tableLayout;" parent="1" vertex="1">
          <mxGeometry x="590" y="370" width="260" height="50" as="geometry" />
        </mxCell>
        <mxCell id="yNoArYyabMt8Pd0Z0W2D-50" value="" style="shape=tableRow;horizontal=0;startSize=0;swimlaneHead=0;swimlaneBody=0;strokeColor=inherit;top=0;left=0;bottom=0;right=0;collapsible=0;dropTarget=0;fillColor=none;points=[[0,0.5],[1,0.5]];portConstraint=eastwest;" parent="yNoArYyabMt8Pd0Z0W2D-49" vertex="1">
          <mxGeometry width="260" height="50" as="geometry" />
        </mxCell>
        <mxCell id="yNoArYyabMt8Pd0Z0W2D-51" value="&lt;b&gt;Ország&lt;/b&gt;&lt;div&gt;VC(20&lt;b&gt;)&lt;/b&gt;&lt;/div&gt;" style="shape=partialRectangle;html=1;whiteSpace=wrap;connectable=0;strokeColor=inherit;overflow=hidden;fillColor=none;top=0;left=0;bottom=0;right=0;pointerEvents=1;" parent="yNoArYyabMt8Pd0Z0W2D-50" vertex="1">
          <mxGeometry width="65" height="50" as="geometry">
            <mxRectangle width="65" height="50" as="alternateBounds" />
          </mxGeometry>
        </mxCell>
        <mxCell id="yNoArYyabMt8Pd0Z0W2D-52" value="&lt;b&gt;Város&lt;/b&gt;&lt;div&gt;VC(20)&lt;/div&gt;" style="shape=partialRectangle;html=1;whiteSpace=wrap;connectable=0;strokeColor=inherit;overflow=hidden;fillColor=none;top=0;left=0;bottom=0;right=0;pointerEvents=1;" parent="yNoArYyabMt8Pd0Z0W2D-50" vertex="1">
          <mxGeometry x="65" width="65" height="50" as="geometry">
            <mxRectangle width="65" height="50" as="alternateBounds" />
          </mxGeometry>
        </mxCell>
        <mxCell id="yNoArYyabMt8Pd0Z0W2D-53" value="&lt;b&gt;Irányító-szám&lt;/b&gt;&lt;div&gt;INT(4)&lt;/div&gt;" style="shape=partialRectangle;html=1;whiteSpace=wrap;connectable=0;strokeColor=inherit;overflow=hidden;fillColor=none;top=0;left=0;bottom=0;right=0;pointerEvents=1;" parent="yNoArYyabMt8Pd0Z0W2D-50" vertex="1">
          <mxGeometry x="130" width="65" height="50" as="geometry">
            <mxRectangle width="65" height="50" as="alternateBounds" />
          </mxGeometry>
        </mxCell>
        <mxCell id="yNoArYyabMt8Pd0Z0W2D-54" value="&lt;div style=&quot;&quot;&gt;&lt;b&gt;Utca&lt;/b&gt;&lt;/div&gt;&lt;div style=&quot;&quot;&gt;VC(40)&lt;/div&gt;" style="shape=partialRectangle;html=1;whiteSpace=wrap;connectable=0;strokeColor=inherit;overflow=hidden;fillColor=none;top=0;left=0;bottom=0;right=0;pointerEvents=1;align=left;" parent="yNoArYyabMt8Pd0Z0W2D-50" vertex="1">
          <mxGeometry x="195" width="65" height="50" as="geometry">
            <mxRectangle width="65" height="50" as="alternateBounds" />
          </mxGeometry>
        </mxCell>
        <mxCell id="yNoArYyabMt8Pd0Z0W2D-55" value="Cím" style="rounded=0;whiteSpace=wrap;html=1;fillColor=#b1ddf0;strokeColor=#10739e;" parent="1" vertex="1">
          <mxGeometry x="590" y="340" width="330" height="30" as="geometry" />
        </mxCell>
        <mxCell id="yNoArYyabMt8Pd0Z0W2D-56" value="" style="shape=table;startSize=0;container=1;collapsible=0;childLayout=tableLayout;" parent="1" vertex="1">
          <mxGeometry x="340" y="370" width="200" height="50" as="geometry" />
        </mxCell>
        <mxCell id="yNoArYyabMt8Pd0Z0W2D-57" value="" style="shape=tableRow;horizontal=0;startSize=0;swimlaneHead=0;swimlaneBody=0;strokeColor=inherit;top=0;left=0;bottom=0;right=0;collapsible=0;dropTarget=0;fillColor=none;points=[[0,0.5],[1,0.5]];portConstraint=eastwest;" parent="yNoArYyabMt8Pd0Z0W2D-56" vertex="1">
          <mxGeometry width="200" height="50" as="geometry" />
        </mxCell>
        <mxCell id="yNoArYyabMt8Pd0Z0W2D-58" value="&lt;b&gt;Gyártó&lt;/b&gt;&lt;div&gt;&lt;b&gt;_neve &lt;/b&gt;VC(30)&lt;/div&gt;" style="shape=partialRectangle;html=1;whiteSpace=wrap;connectable=0;strokeColor=inherit;overflow=hidden;fillColor=none;top=0;left=0;bottom=0;right=0;pointerEvents=1;" parent="yNoArYyabMt8Pd0Z0W2D-57" vertex="1">
          <mxGeometry width="66" height="50" as="geometry">
            <mxRectangle width="66" height="50" as="alternateBounds" />
          </mxGeometry>
        </mxCell>
        <mxCell id="yNoArYyabMt8Pd0Z0W2D-59" value="&lt;b&gt;Típus &lt;/b&gt;ENUM" style="shape=partialRectangle;html=1;whiteSpace=wrap;connectable=0;strokeColor=inherit;overflow=hidden;fillColor=none;top=0;left=0;bottom=0;right=0;pointerEvents=1;" parent="yNoArYyabMt8Pd0Z0W2D-57" vertex="1">
          <mxGeometry x="66" width="68" height="50" as="geometry">
            <mxRectangle width="68" height="50" as="alternateBounds" />
          </mxGeometry>
        </mxCell>
        <mxCell id="yNoArYyabMt8Pd0Z0W2D-60" value="&lt;b&gt;Szám&lt;/b&gt;&lt;div&gt;INT(10) PK&lt;/div&gt;" style="shape=partialRectangle;html=1;whiteSpace=wrap;connectable=0;strokeColor=inherit;overflow=hidden;fillColor=none;top=0;left=0;bottom=0;right=0;pointerEvents=1;" parent="yNoArYyabMt8Pd0Z0W2D-57" vertex="1">
          <mxGeometry x="134" width="66" height="50" as="geometry">
            <mxRectangle width="66" height="50" as="alternateBounds" />
          </mxGeometry>
        </mxCell>
        <mxCell id="yNoArYyabMt8Pd0Z0W2D-61" value="Telefonszám" style="rounded=0;whiteSpace=wrap;html=1;fillColor=#ffcccc;strokeColor=#36393d;" parent="1" vertex="1">
          <mxGeometry x="340" y="340" width="200" height="30" as="geometry" />
        </mxCell>
        <mxCell id="yNoArYyabMt8Pd0Z0W2D-62" value="" style="endArrow=classic;html=1;rounded=0;entryX=1;entryY=0.5;entryDx=0;entryDy=0;exitX=0.624;exitY=1.016;exitDx=0;exitDy=0;exitPerimeter=0;" parent="1" source="yNoArYyabMt8Pd0Z0W2D-2" target="yNoArYyabMt8Pd0Z0W2D-57" edge="1">
          <mxGeometry width="50" height="50" relative="1" as="geometry">
            <mxPoint x="420" y="260" as="sourcePoint" />
            <mxPoint x="470" y="210" as="targetPoint" />
            <Array as="points">
              <mxPoint x="502" y="320" />
              <mxPoint x="560" y="320" />
              <mxPoint x="560" y="395" />
            </Array>
          </mxGeometry>
        </mxCell>
        <mxCell id="yNoArYyabMt8Pd0Z0W2D-63" value="" style="endArrow=classic;html=1;rounded=0;entryX=0.122;entryY=1.054;entryDx=0;entryDy=0;entryPerimeter=0;exitX=0.866;exitY=1.021;exitDx=0;exitDy=0;exitPerimeter=0;" parent="1" source="yNoArYyabMt8Pd0Z0W2D-34" target="yNoArYyabMt8Pd0Z0W2D-26" edge="1">
          <mxGeometry width="50" height="50" relative="1" as="geometry">
            <mxPoint x="320" y="460" as="sourcePoint" />
            <mxPoint x="-330" y="450" as="targetPoint" />
            <Array as="points">
              <mxPoint x="255" y="460" />
              <mxPoint x="-248" y="460" />
            </Array>
          </mxGeometry>
        </mxCell>
        <mxCell id="yNoArYyabMt8Pd0Z0W2D-64" value="" style="endArrow=classic;html=1;rounded=0;entryX=0.115;entryY=1;entryDx=0;entryDy=0;entryPerimeter=0;exitX=1;exitY=0.5;exitDx=0;exitDy=0;" parent="1" source="yNoArYyabMt8Pd0Z0W2D-26" target="yNoArYyabMt8Pd0Z0W2D-17" edge="1">
          <mxGeometry width="50" height="50" relative="1" as="geometry">
            <mxPoint y="440" as="sourcePoint" />
            <mxPoint x="180" y="230" as="targetPoint" />
            <Array as="points">
              <mxPoint y="395" />
              <mxPoint y="300" />
              <mxPoint x="-250" y="300" />
            </Array>
          </mxGeometry>
        </mxCell>
        <mxCell id="yNoArYyabMt8Pd0Z0W2D-65" value="" style="endArrow=classic;html=1;rounded=0;entryX=1;entryY=0.5;entryDx=0;entryDy=0;" parent="1" target="pVySx0jvAV13OwQmomrk-1" edge="1">
          <mxGeometry width="50" height="50" relative="1" as="geometry">
            <mxPoint x="600" y="245" as="sourcePoint" />
            <mxPoint x="970" y="390" as="targetPoint" />
            <Array as="points">
              <mxPoint x="720" y="245" />
              <mxPoint x="980" y="245" />
              <mxPoint x="980" y="395" />
            </Array>
          </mxGeometry>
        </mxCell>
        <mxCell id="pVySx0jvAV13OwQmomrk-1" value="&lt;b&gt;CímID &lt;/b&gt;INT(3) PK" style="rounded=0;whiteSpace=wrap;html=1;" parent="1" vertex="1">
          <mxGeometry x="850" y="370" width="70" height="50" as="geometry" />
        </mxCell>
      </root>
    </mxGraphModel>
  </diagram>
</mxfile>
